<?xml version="1.0" encoding="utf-8"?>
<!-- Generator: Adobe Illustrator 18.0.0, SVG Export Plug-In . SVG Version: 6.00 Build 0)  -->
<!DOCTYPE svg PUBLIC "-//W3C//DTD SVG 1.1//EN" "http://www.w3.org/Graphics/SVG/1.1/DTD/svg11.dtd">
<svg version="1.1" id="Layer_1" xmlns="http://www.w3.org/2000/svg" xmlns:xlink="http://www.w3.org/1999/xlink" x="0px" y="0px"
	 viewBox="0 0 488 145.1" enable-background="new 0 0 488 145.1" xml:space="preserve">
<path fill="#FFFFFF" d="M19.6,74.4c16.6-9.1,33.2-18.1,49.8-27.2c5.5-3,10.9-6.1,16.5-9c5.1-2.6,8.9-1.7,11,2.4c2,4,0.7,7.2-4.4,10
	C79.3,58,66.1,65.2,52.8,72.5c-1.2,0.7-2.4,1.4-4.2,2.4c8.9,4.9,17.4,9.6,25.8,14.2c5.3,2.9,10.7,5.9,16,8.8
	c6.9,3.9,8.7,7.2,6.1,11.5c-2.5,4.3-6.1,4.5-13.2,0.7c-19.9-11-39.8-21.9-59.7-32.9c-1.3-0.7-2.7-1.3-4.1-1.9
	C19.6,75.1,19.6,74.7,19.6,74.4z"/>
<path fill="#FFFFFF" d="M468.4,75.4c-17.7,9.6-35.4,19.2-53,28.9c-4.7,2.6-9.3,5.2-14.1,7.6c-4.5,2.2-8.2,1.1-10.2-2.7
	c-1.9-3.7-0.8-7.1,3.5-9.6c13.3-7.5,26.7-14.8,40.1-22.1c1.3-0.7,2.6-1.5,4.5-2.5c-1.6-1-2.8-1.7-4-2.4
	c-12.4-6.9-24.9-13.7-37.3-20.5c-1.6-0.9-3.2-1.8-4.7-2.8c-3.1-2.2-3.7-5.2-2-8.5c1.7-3.5,4.8-4.7,8.5-3.4c2,0.7,3.9,1.8,5.7,2.8
	c19.5,10.7,39,21.5,58.5,32.3c1.5,0.8,3,1.4,4.5,2.2C468.4,74.7,468.4,75.1,468.4,75.4z"/>
<path fill="#FFFFFF" d="M296.9,18c0,35.3,0,70.5,0,105.9c-59.6,0-119,0-178.8,0c0-35.2,0-70.4,0-105.9C177.6,18,237.1,18,296.9,18z
	 M286.5,76.7c-52.8,0-105.1,0-157.6,0c0,4.2,0,8.1,0,12.1c52.7,0,105.1,0,157.6,0C286.5,84.7,286.5,80.9,286.5,76.7z M285.7,100.6
	c-52.9,0-105.2,0-157.5,0c0,4.3,0,8.2,0,12c52.7,0,105,0,157.5,0C285.7,108.5,285.7,104.7,285.7,100.6z M286.5,52.9
	c-26.5,0-52.5,0-78.7,0c0,4.2,0,8.1,0,12.1c26.4,0,52.5,0,78.7,0C286.5,60.8,286.5,57,286.5,52.9z M286.3,41.6c0-4.3,0-8.3,0-12.3
	c-26.3,0-52.2,0-78.3,0c0,4.3,0,8.3,0,12.3C234.3,41.6,260.3,41.6,286.3,41.6z"/>
<path fill="#FFFFFF" d="M323.5,128.6c-4,0-7.1-3.7-6.1-8.2c0.3-1.3,0.8-2.6,1.4-3.9c14.5-31.3,29-62.5,43.7-93.7
	c1.1-2.4,3.3-5.2,5.6-5.9c5.4-1.8,9.8,3.6,7.5,9.2c-3.3,7.9-7,15.6-10.6,23.3c-11.2,24.2-22.4,48.4-33.6,72.6
	C329.9,125.2,328.5,128.7,323.5,128.6z"/>
</svg>
